<svg width="14" height="16" viewBox="0 0 14 16" fill="none" xmlns="http://www.w3.org/2000/svg">
<g clip-path="url(#clip0_1222_171)">
<path d="M6.13594 14.8909C4.23281 12.9759 0 8.33438 0 5.72727C0 2.56415 3.13396 0 7 0C10.8646 0 14 2.56415 14 5.72727C14 8.33438 9.73438 12.9759 7.86406 14.8909C7.41562 15.3473 6.58437 15.3473 6.13594 14.8909ZM7 7.63636C8.28698 7.63636 9.33333 6.78026 9.33333 5.72727C9.33333 4.67429 8.28698 3.81818 7 3.81818C5.71302 3.81818 4.66667 4.67429 4.66667 5.72727C4.66667 6.78026 5.71302 7.63636 7 7.63636Z" fill="white"/>
</g>
<defs>
<clipPath id="clip0_1222_171">
<rect width="14" height="15.2727" fill="white"/>
</clipPath>
</defs>
</svg>
