<svg width="14" height="14" viewBox="0 0 14 14" fill="none" xmlns="http://www.w3.org/2000/svg">
<path d="M13.2466 3.0651C13.3365 2.73958 13.2466 2.5 12.814 2.5H11.3824C11.0178 2.5 10.8501 2.70573 10.7601 2.9349C10.7601 2.9349 10.031 4.83854 9.00041 6.07292C8.66743 6.42969 8.5143 6.54427 8.33201 6.54427C8.24208 6.54427 8.10354 6.42969 8.10354 6.10417V3.0651C8.10354 2.67448 8.00145 2.5 7.70006 2.5H5.44937C5.2209 2.5 5.08479 2.68229 5.08479 2.85156C5.08479 3.22135 5.60006 3.30729 5.65354 4.34896V6.60937C5.65354 7.10417 5.5709 7.19531 5.38861 7.19531C4.90249 7.19531 3.72125 5.28385 3.02125 3.09635C2.88027 2.67188 2.74173 2.5 2.37472 2.5H0.943121C0.534787 2.5 0.452148 2.70573 0.452148 2.9349C0.452148 3.34115 0.938259 5.35938 2.715 8.02604C3.89868 9.84635 5.56604 10.8333 7.0827 10.8333C7.99416 10.8333 8.10597 10.6146 8.10597 10.237C8.10597 8.4974 8.02333 8.33333 8.48027 8.33333C8.69173 8.33333 9.05631 8.44792 9.90701 9.32552C10.8792 10.3672 11.0396 10.8333 11.5841 10.8333H13.0157C13.424 10.8333 13.6306 10.6146 13.5115 10.1823C13.2393 9.27344 11.3994 7.40365 11.3167 7.27865C11.1053 6.98698 11.166 6.85677 11.3167 6.59635C11.3192 6.59375 13.0667 3.95833 13.2466 3.0651Z" fill="white"/>
</svg>
