<svg width="16" height="18" viewBox="0 0 16 18" fill="none" xmlns="http://www.w3.org/2000/svg">
<path d="M15.9765 13.3463L15.2499 16.8225C15.1478 17.3139 14.7564 17.6577 14.2979 17.6577C6.41311 17.657 0 10.5805 0 1.87969C0 1.37413 0.311561 0.941671 0.756947 0.829592L3.90724 0.0277918C4.36604 -0.0895296 4.83483 0.173254 5.02548 0.652678L6.47936 4.39441C6.64932 4.83514 6.53468 5.34864 6.19871 5.65143L4.51605 7.14226C5.57803 9.52938 7.33694 11.4703 9.5009 12.6428L10.8785 10.7874C11.1501 10.4157 11.6189 10.287 12.0183 10.4779L15.4093 12.0819C15.8171 12.3186 16.0828 12.8428 15.9765 13.3463Z" fill="white"/>
</svg>
