<svg width="27" height="20" viewBox="0 0 27 20" fill="none" xmlns="http://www.w3.org/2000/svg">
<path d="M5.81028 9.56522C7.23057 9.68116 8.39262 10.1739 9.29644 11.0435C10.2003 11.913 10.6522 13.0145 10.6522 14.3478C10.6522 15.7971 10.168 16.9855 9.19961 17.913C8.23123 18.7826 7.00461 19.2174 5.51976 19.2174C3.84124 19.2174 2.48551 18.6667 1.45257 17.5652C0.48419 16.4638 0 14.7536 0 12.4348C0 7.97101 1.64624 4.11594 4.93874 0.869564C5.58432 0.289855 6.32675 0 7.16601 0C7.87615 0 8.48946 0.231884 9.00593 0.695653C9.5224 1.10145 9.78063 1.5942 9.78063 2.17391C9.78063 2.81159 9.5224 3.36232 9.00593 3.82609C7.3274 5.3913 6.26219 7.30435 5.81028 9.56522ZM21.8854 9.56522C23.3057 9.68116 24.4677 10.1739 25.3715 11.0435C26.2754 11.913 26.7273 13.0145 26.7273 14.3478C26.7273 15.7971 26.2431 16.9855 25.2747 17.913C24.3063 18.7826 23.0797 19.2174 21.5949 19.2174C19.9163 19.2174 18.5606 18.6667 17.5277 17.5652C16.5593 16.4638 16.0751 14.7536 16.0751 12.4348C16.0751 7.97101 17.7213 4.11594 21.0138 0.869564C21.6594 0.289855 22.4018 0 23.2411 0C23.9513 0 24.5646 0.231884 25.081 0.695653C25.5975 1.10145 25.8557 1.5942 25.8557 2.17391C25.8557 2.81159 25.5975 3.36232 25.081 3.82609C23.4025 5.3913 22.3373 7.30435 21.8854 9.56522Z" fill="#C2C2C2"/>
</svg>
