<svg width="27" height="20" viewBox="0 0 27 20" fill="none" xmlns="http://www.w3.org/2000/svg">
<path d="M21.1897 9.56522C19.7694 9.68116 18.6074 10.1739 17.7036 11.0435C16.7997 11.913 16.3478 13.0145 16.3478 14.3478C16.3478 15.7971 16.832 16.9855 17.8004 17.913C18.7688 18.7826 19.9954 19.2174 21.4802 19.2174C23.1588 19.2174 24.5145 18.6667 25.5474 17.5652C26.5158 16.4638 27 14.7536 27 12.4348C27 7.97101 25.3538 4.11594 22.0613 0.869564C21.4157 0.289855 20.6733 0 19.834 0C19.1238 0 18.5105 0.231884 17.9941 0.695653C17.4776 1.10145 17.2194 1.5942 17.2194 2.17391C17.2194 2.81159 17.4776 3.36232 17.9941 3.82609C19.6726 5.3913 20.7378 7.30435 21.1897 9.56522ZM5.11462 9.56522C3.69433 9.68116 2.53228 10.1739 1.62846 11.0435C0.72464 11.913 0.272726 13.0145 0.272726 14.3478C0.272726 15.7971 0.756918 16.9855 1.7253 17.913C2.69368 18.7826 3.92029 19.2174 5.40514 19.2174C7.08366 19.2174 8.43939 18.6667 9.47233 17.5652C10.4407 16.4638 10.9249 14.7536 10.9249 12.4348C10.9249 7.97101 9.27866 4.11594 5.98617 0.869564C5.34058 0.289855 4.59816 0 3.75889 0C3.04875 0 2.43544 0.231884 1.91897 0.695653C1.4025 1.10145 1.14427 1.5942 1.14427 2.17391C1.14427 2.81159 1.4025 3.36232 1.91897 3.82609C3.5975 5.3913 4.66271 7.30435 5.11462 9.56522Z" fill="#C2C2C2"/>
</svg>
