<svg width="14" height="16" viewBox="0 0 14 16" fill="none" xmlns="http://www.w3.org/2000/svg">
<g clip-path="url(#clip0_1222_126)">
<path d="M7.00303 4.40626C5.01553 4.40626 3.4124 6.00938 3.4124 7.99688C3.4124 9.98438 5.01553 11.5875 7.00303 11.5875C8.99053 11.5875 10.5937 9.98438 10.5937 7.99688C10.5937 6.00938 8.99053 4.40626 7.00303 4.40626ZM7.00303 10.3313C5.71865 10.3313 4.66865 9.28438 4.66865 7.99688C4.66865 6.70938 5.71553 5.66251 7.00303 5.66251C8.29053 5.66251 9.3374 6.70938 9.3374 7.99688C9.3374 9.28438 8.2874 10.3313 7.00303 10.3313ZM11.578 4.25938C11.578 4.72501 11.203 5.09688 10.7405 5.09688C10.2749 5.09688 9.90303 4.72188 9.90303 4.25938C9.90303 3.79688 10.278 3.42188 10.7405 3.42188C11.203 3.42188 11.578 3.79688 11.578 4.25938ZM13.9562 5.10938C13.903 3.98751 13.6468 2.99376 12.8249 2.17501C12.0062 1.35626 11.0124 1.10001 9.89053 1.04376C8.73428 0.978131 5.26865 0.978131 4.1124 1.04376C2.99365 1.09688 1.9999 1.35313 1.17803 2.17188C0.356152 2.99063 0.103027 3.98438 0.0467773 5.10626C-0.0188477 6.26251 -0.0188477 9.72813 0.0467773 10.8844C0.0999023 12.0063 0.356152 13 1.17803 13.8188C1.9999 14.6375 2.99053 14.8938 4.1124 14.95C5.26865 15.0156 8.73428 15.0156 9.89053 14.95C11.0124 14.8969 12.0062 14.6406 12.8249 13.8188C13.6437 13 13.8999 12.0063 13.9562 10.8844C14.0218 9.72813 14.0218 6.26563 13.9562 5.10938ZM12.4624 12.125C12.2187 12.7375 11.7468 13.2094 11.1312 13.4563C10.2093 13.8219 8.02178 13.7375 7.00303 13.7375C5.98428 13.7375 3.79365 13.8188 2.8749 13.4563C2.2624 13.2125 1.79053 12.7406 1.54365 12.125C1.17803 11.2031 1.2624 9.01563 1.2624 7.99688C1.2624 6.97813 1.18115 4.78751 1.54365 3.86876C1.7874 3.25626 2.25928 2.78438 2.8749 2.53751C3.79678 2.17188 5.98428 2.25626 7.00303 2.25626C8.02178 2.25626 10.2124 2.17501 11.1312 2.53751C11.7437 2.78126 12.2155 3.25313 12.4624 3.86876C12.828 4.79063 12.7437 6.97813 12.7437 7.99688C12.7437 9.01563 12.828 11.2063 12.4624 12.125Z" fill="white"/>
</g>
<defs>
<clipPath id="clip0_1222_126">
<rect width="14" height="16" fill="white"/>
</clipPath>
</defs>
</svg>
